<mxfile host="app.diagrams.net" agent="Mozilla/5.0 (Windows NT 10.0; Win64; x64) AppleWebKit/537.36 (KHTML, like Gecko) Chrome/135.0.0.0 Safari/537.36" version="26.2.12">
  <diagram name="Page-1" id="kJih2EVv_8KnTAs_L_VF">
    <mxGraphModel dx="1044" dy="567" grid="1" gridSize="10" guides="1" tooltips="1" connect="1" arrows="1" fold="1" page="1" pageScale="1" pageWidth="850" pageHeight="1100" math="0" shadow="0">
      <root>
        <mxCell id="0" />
        <mxCell id="1" parent="0" />
        <mxCell id="giSu3xgfnJtw4W87moCO-10" value="Abstract Factory Design Pattern Diagram" style="shape=umlFrame;whiteSpace=wrap;html=1;pointerEvents=0;width=190;height=40;" parent="1" vertex="1">
          <mxGeometry x="60" y="10" width="730" height="560" as="geometry" />
        </mxCell>
        <mxCell id="Gd0PmlU6-qrEIdLhfT8G-1" value="&lt;div&gt;&lt;span style=&quot;font-weight: normal;&quot;&gt;&amp;lt;&amp;lt;entity&amp;gt;&amp;gt;&lt;/span&gt;&lt;/div&gt;Map" style="swimlane;fontStyle=1;align=center;verticalAlign=top;childLayout=stackLayout;horizontal=1;startSize=40;horizontalStack=0;resizeParent=1;resizeParentMax=0;resizeLast=0;collapsible=1;marginBottom=0;whiteSpace=wrap;html=1;" vertex="1" parent="1">
          <mxGeometry x="140" y="90" width="240" height="240" as="geometry" />
        </mxCell>
        <mxCell id="Gd0PmlU6-qrEIdLhfT8G-2" value="+ name: String" style="text;strokeColor=none;fillColor=none;align=left;verticalAlign=top;spacingLeft=4;spacingRight=4;overflow=hidden;rotatable=0;points=[[0,0.5],[1,0.5]];portConstraint=eastwest;whiteSpace=wrap;html=1;" vertex="1" parent="Gd0PmlU6-qrEIdLhfT8G-1">
          <mxGeometry y="40" width="240" height="26" as="geometry" />
        </mxCell>
        <mxCell id="Gd0PmlU6-qrEIdLhfT8G-3" value="+ data: byte[]" style="text;strokeColor=none;fillColor=none;align=left;verticalAlign=top;spacingLeft=4;spacingRight=4;overflow=hidden;rotatable=0;points=[[0,0.5],[1,0.5]];portConstraint=eastwest;whiteSpace=wrap;html=1;" vertex="1" parent="Gd0PmlU6-qrEIdLhfT8G-1">
          <mxGeometry y="66" width="240" height="26" as="geometry" />
        </mxCell>
        <mxCell id="Gd0PmlU6-qrEIdLhfT8G-4" value="" style="line;strokeWidth=1;fillColor=none;align=left;verticalAlign=middle;spacingTop=-1;spacingLeft=3;spacingRight=3;rotatable=0;labelPosition=right;points=[];portConstraint=eastwest;strokeColor=inherit;" vertex="1" parent="Gd0PmlU6-qrEIdLhfT8G-1">
          <mxGeometry y="92" width="240" height="18" as="geometry" />
        </mxCell>
        <mxCell id="Gd0PmlU6-qrEIdLhfT8G-5" value="&lt;span style=&quot;text-align: center; text-wrap-mode: nowrap;&quot;&gt;+ Map(name:&amp;nbsp;&lt;/span&gt;&lt;span style=&quot;text-align: center; text-wrap-mode: nowrap;&quot;&gt;String&amp;nbsp;&lt;/span&gt;&lt;span style=&quot;text-align: center; text-wrap-mode: nowrap;&quot;&gt;,&amp;nbsp;&lt;/span&gt;&lt;span style=&quot;text-align: center; text-wrap-mode: nowrap;&quot;&gt;data:&amp;nbsp;&lt;/span&gt;&lt;span style=&quot;text-align: center; text-wrap-mode: nowrap;&quot;&gt;byte[] ): void&lt;/span&gt;" style="text;strokeColor=none;fillColor=none;align=left;verticalAlign=top;spacingLeft=4;spacingRight=4;overflow=hidden;rotatable=0;points=[[0,0.5],[1,0.5]];portConstraint=eastwest;whiteSpace=wrap;html=1;" vertex="1" parent="Gd0PmlU6-qrEIdLhfT8G-1">
          <mxGeometry y="110" width="240" height="26" as="geometry" />
        </mxCell>
        <mxCell id="Gd0PmlU6-qrEIdLhfT8G-6" value="&lt;span style=&quot;text-align: center; text-wrap-mode: nowrap;&quot;&gt;+ getName(): String&lt;/span&gt;" style="text;strokeColor=none;fillColor=none;align=left;verticalAlign=top;spacingLeft=4;spacingRight=4;overflow=hidden;rotatable=0;points=[[0,0.5],[1,0.5]];portConstraint=eastwest;whiteSpace=wrap;html=1;" vertex="1" parent="Gd0PmlU6-qrEIdLhfT8G-1">
          <mxGeometry y="136" width="240" height="26" as="geometry" />
        </mxCell>
        <mxCell id="Gd0PmlU6-qrEIdLhfT8G-7" value="&lt;span style=&quot;text-align: center; text-wrap-mode: nowrap;&quot;&gt;+ getData(): byte[]&lt;/span&gt;" style="text;strokeColor=none;fillColor=none;align=left;verticalAlign=top;spacingLeft=4;spacingRight=4;overflow=hidden;rotatable=0;points=[[0,0.5],[1,0.5]];portConstraint=eastwest;whiteSpace=wrap;html=1;" vertex="1" parent="Gd0PmlU6-qrEIdLhfT8G-1">
          <mxGeometry y="162" width="240" height="26" as="geometry" />
        </mxCell>
        <mxCell id="Gd0PmlU6-qrEIdLhfT8G-8" value="&lt;div style=&quot;text-align: center;&quot;&gt;&lt;span style=&quot;background-color: transparent; text-wrap-mode: nowrap;&quot;&gt;+ setName(name: String): void&lt;/span&gt;&lt;/div&gt;" style="text;strokeColor=none;fillColor=none;align=left;verticalAlign=top;spacingLeft=4;spacingRight=4;overflow=hidden;rotatable=0;points=[[0,0.5],[1,0.5]];portConstraint=eastwest;whiteSpace=wrap;html=1;" vertex="1" parent="Gd0PmlU6-qrEIdLhfT8G-1">
          <mxGeometry y="188" width="240" height="26" as="geometry" />
        </mxCell>
        <mxCell id="Gd0PmlU6-qrEIdLhfT8G-9" value="&lt;span style=&quot;text-align: center; text-wrap-mode: nowrap;&quot;&gt;+ setData(data: byte[]): void&lt;/span&gt;" style="text;strokeColor=none;fillColor=none;align=left;verticalAlign=top;spacingLeft=4;spacingRight=4;overflow=hidden;rotatable=0;points=[[0,0.5],[1,0.5]];portConstraint=eastwest;whiteSpace=wrap;html=1;" vertex="1" parent="Gd0PmlU6-qrEIdLhfT8G-1">
          <mxGeometry y="214" width="240" height="26" as="geometry" />
        </mxCell>
      </root>
    </mxGraphModel>
  </diagram>
</mxfile>
